<svg xmlns="http://www.w3.org/2000/svg" width="112" height="112" fill="none" viewBox="0 0 112 112">
  <path fill="#000" fill-opacity=".5" d="M1 56C1 25.624 25.624 1 56 1s55 24.624 55 55-24.624 55-55 55S1 86.376 1 56Z"/>
  <path fill="url(#a)" d="M1 56C1 25.624 25.624 1 56 1s55 24.624 55 55-24.624 55-55 55S1 86.376 1 56Z"/>
  <circle cx="56" cy="56" r="53.5" stroke="url(#b)" opacity=".3"/>
  <circle cx="56" cy="56" r="51.5" stroke="url(#c)" opacity=".1"/>
  <path fill="url(#d)" d="M56 110C26.177 110 2 85.823 2 56H0c0 30.928 25.072 56 56 56v-2Zm54-54c0 29.823-24.177 54-54 54v2c30.928 0 56-25.072 56-56h-2ZM56 2c29.823 0 54 24.177 54 54h2c0-30.928-25.072-56-56-56v2Zm0-2C25.072 0 0 25.072 0 56h2C2 26.177 26.177 2 56 2V0Z"/>
  <defs>
    <linearGradient id="a" x1="1" x2="111" y1="56" y2="56" gradientUnits="userSpaceOnUse">
      <stop stop-color="#830088" stop-opacity=".2"/>
      <stop offset="1" stop-color="#0066B0" stop-opacity=".2"/>
    </linearGradient>
    <linearGradient id="b" x1="3" x2="109" y1="56" y2="56" gradientUnits="userSpaceOnUse">
      <stop stop-color="#EC4EF3"/>
      <stop offset="1" stop-color="#73C9FF"/>
    </linearGradient>
    <linearGradient id="c" x1="5" x2="107" y1="56" y2="56" gradientUnits="userSpaceOnUse">
      <stop stop-color="#EC4EF3"/>
      <stop offset="1" stop-color="#73C9FF"/>
    </linearGradient>
    <linearGradient id="d" x1="1" x2="111" y1="56" y2="56" gradientUnits="userSpaceOnUse">
      <stop stop-color="#EC4EF3"/>
      <stop offset="1" stop-color="#73C9FF"/>
    </linearGradient>
  </defs>
</svg>
